<?xml version="1.0" standalone="no"?>
<!DOCTYPE svg PUBLIC "-//W3C//DTD SVG 20010904//EN"
 "http://www.w3.org/TR/2001/REC-SVG-20010904/DTD/svg10.dtd">
<svg version="1.0" xmlns="http://www.w3.org/2000/svg"
 width="560.000000pt" height="140.000000pt" viewBox="0 0 560.000000 140.000000"
 preserveAspectRatio="xMidYMid meet">

<g transform="translate(0.000000,140.000000) scale(0.100000,-0.100000)"
fill="#000000" stroke="none">
<path d="M0 700 l0 -700 2800 0 2800 0 0 700 0 700 -2800 0 -2800 0 0 -700z
m1010 605 c-7 -39 -10 -38 -25 11 -3 8 -1 13 4 10 5 -3 12 1 15 10 11 28 14
11 6 -31z m20 -45 c0 -5 -10 -10 -22 -10 -19 0 -20 2 -8 10 19 13 30 13 30 0z
m-24 -53 c0 -17 4 -75 8 -127 6 -79 5 -92 -6 -75 -23 36 -31 235 -9 235 3 0 6
-15 7 -33z m21 -59 c-2 -13 -4 -5 -4 17 -1 22 1 32 4 23 2 -10 2 -28 0 -40z
m10 -65 c-3 -10 -5 -4 -5 12 0 17 2 24 5 18 2 -7 2 -21 0 -30z m-112 -23 c-3
-5 2 -10 12 -10 11 0 28 -7 39 -16 19 -15 19 -16 -1 -8 -11 3 -42 8 -70 10
-49 3 -50 3 -20 -11 17 -7 25 -14 18 -14 -7 -1 -23 -13 -37 -28 -14 -15 -28
-24 -32 -20 -3 3 -13 0 -20 -8 -16 -16 -19 -29 -4 -20 16 10 11 -1 -7 -16 -14
-12 -16 -12 -9 1 4 8 0 6 -8 -5 -9 -11 -23 -28 -31 -38 -8 -9 -15 -24 -15 -33
0 -25 -31 -84 -41 -78 -5 3 -6 -2 -3 -11 4 -9 -1 -21 -11 -29 -10 -7 -15 -18
-11 -24 9 -14 -4 -43 -16 -36 -6 4 -8 -1 -5 -12 4 -11 -1 -30 -9 -44 -9 -14
-13 -17 -10 -7 3 9 8 25 11 35 3 9 -10 -14 -29 -52 -29 -58 -96 -142 -96 -121
0 3 -10 -3 -22 -15 -12 -11 -29 -18 -39 -15 -15 5 -15 1 4 -37 25 -53 47 -79
59 -72 4 3 7 0 6 -7 -2 -6 3 -14 11 -17 9 -3 11 0 6 8 -6 9 -4 11 5 5 7 -5 27
-12 44 -16 30 -8 30 -9 -5 -5 -20 3 -41 0 -46 -5 -12 -12 -81 61 -95 102 -5
16 -14 26 -19 23 -5 -3 -6 3 -2 12 4 12 3 15 -5 10 -8 -4 -10 -2 -6 7 6 18
-24 50 -38 41 -6 -4 -8 -2 -4 4 3 5 2 12 -4 14 -6 2 0 9 12 17 13 7 20 10 16
6 -13 -13 44 -65 73 -65 34 0 102 66 94 91 -3 10 -1 20 4 24 7 3 8 0 5 -9 -3
-9 -4 -16 0 -16 12 0 197 393 192 407 -3 8 -1 11 4 8 6 -4 10 9 10 31 0 31 2
35 15 24 12 -10 16 -9 21 3 6 16 42 33 84 40 14 2 26 5 28 6 2 0 0 -3 -3 -9z
m311 -131 c14 -13 20 -28 17 -38 -4 -9 -3 -13 2 -9 4 4 22 -13 40 -37 17 -25
36 -42 41 -38 5 5 0 -3 -11 -16 -11 -14 -15 -21 -9 -18 15 9 19 -7 19 -72 0
-40 -4 -54 -15 -56 -12 -2 -15 9 -13 54 1 30 -3 64 -9 75 -7 13 -6 21 3 28 11
6 9 8 -6 6 -15 -2 -20 3 -20 24 0 15 -5 31 -9 35 -5 4 -6 2 -2 -4 4 -8 1 -13
-9 -13 -9 0 -15 6 -14 13 7 53 -27 87 -85 87 -14 0 -27 4 -30 9 -11 17 88 -10
110 -30z m-36 -19 c13 -9 13 -10 0 -9 -8 0 -24 4 -35 9 l-20 9 20 0 c11 0 27
-4 35 -9z m-170 -70 c0 -29 -5 -50 -11 -50 -6 0 -4 -6 4 -14 12 -12 12 -24 1
-78 -8 -35 -14 -81 -14 -103 -1 -22 -5 -49 -9 -60 -5 -12 -4 -25 2 -33 6 -8
11 -91 12 -215 1 -171 3 -202 15 -199 11 2 10 -2 -3 -12 -11 -9 -14 -16 -7
-19 6 -3 5 -4 -2 -3 -7 1 -13 9 -13 17 -1 8 -5 27 -9 43 -6 20 -5 31 5 37 8 5
10 9 4 9 -6 0 -10 53 -9 140 1 115 -1 140 -13 140 -8 0 -12 4 -9 9 3 5 -15 3
-41 -5 -55 -17 -114 -18 -167 -3 -50 14 -66 30 -71 71 -5 41 5 60 25 48 13 -8
12 -10 -2 -10 -10 0 -18 -5 -18 -11 0 -5 6 -7 13 -3 8 5 8 2 -2 -9 -11 -15
-11 -17 2 -17 8 0 22 -11 31 -25 14 -21 83 -51 94 -40 2 2 -9 7 -24 11 -16 4
-33 9 -38 12 -9 5 13 22 29 22 6 0 4 -4 -3 -9 -9 -5 0 -12 31 -20 53 -15 103
-11 99 7 -1 8 1 11 5 9 5 -3 16 0 25 7 12 8 17 32 20 89 2 42 7 80 11 83 9 9
-30 37 -41 30 -5 -3 -7 9 -5 27 3 28 2 29 -7 10 -14 -33 -20 -28 -17 11 1 19
4 34 7 34 3 -1 17 4 33 10 24 10 27 17 27 56 0 40 7 53 33 55 4 1 7 -21 7 -49z
m115 0 c-15 -16 -32 -27 -37 -24 -7 5 -12 -10 -9 -29 1 -5 -4 -5 -10 -1 -8 4
-9 -1 -4 -17 4 -15 3 -19 -3 -11 -9 14 -42 -88 -42 -133 0 -14 -4 -25 -8 -25
-4 0 -5 24 -1 53 8 57 10 66 29 117 8 19 13 37 13 40 -1 3 5 9 13 13 14 8 13
12 -3 30 -18 22 -18 22 3 4 11 -9 24 -14 27 -10 4 3 7 1 7 -7 0 -10 3 -10 15
0 8 7 12 17 8 23 -3 6 -1 7 5 3 7 -4 12 -2 12 5 0 7 3 9 7 6 3 -4 -6 -21 -22
-37z m-313 17 c9 -1 16 -4 16 -7 -2 -12 15 -39 22 -35 5 3 6 -4 3 -15 -8 -29
-25 -24 -51 15 -13 21 -30 35 -43 35 -12 0 -17 4 -13 11 3 6 16 8 28 4 11 -4
29 -7 38 -8z m-637 -54 c19 -9 35 -20 35 -25 0 -11 -7 -10 -33 3 -21 10 -21
10 -3 -5 11 -9 15 -16 10 -16 -13 0 -52 29 -40 30 5 0 3 7 -4 15 -16 19 -9 19
35 -2z m609 11 c28 -11 17 -20 -19 -16 -19 2 -32 8 -29 13 6 10 26 12 48 3z
m396 2 c0 -2 -8 -10 -17 -17 -16 -13 -17 -12 -4 4 13 16 21 21 21 13z m-599
-26 c95 0 100 -19 6 -22 l-62 -2 58 -3 c56 -4 67 -12 49 -40 -11 -17 -251 -26
-271 -10 -12 10 -13 9 -6 -3 7 -12 6 -13 -7 -3 -8 7 -17 10 -20 7 -3 -3 -9 -1
-13 5 -3 6 1 11 9 11 9 0 13 6 10 13 -5 13 71 37 117 37 10 0 19 5 19 11 0 6
7 8 16 5 9 -3 52 -6 95 -6z m-441 -18 c0 -4 -12 -14 -28 -23 -26 -15 -27 -14
-27 6 0 16 5 21 18 17 9 -2 17 1 17 7 0 7 5 9 10 6 6 -3 10 -9 10 -13z m660 8
c11 -7 0 -10 -37 -10 -29 0 -53 5 -53 10 0 13 70 13 90 0z m407 4 c-3 -3 -12
-4 -19 -1 -8 3 -5 6 6 6 11 1 17 -2 13 -5z m216 -1 c-7 -2 -19 -2 -25 0 -7 3
-2 5 12 5 14 0 19 -2 13 -5z m67 -7 c0 -7 3 -7 8 -1 9 12 212 13 212 1 0 -5 8
-2 17 5 11 10 14 10 9 2 -6 -10 204 -13 1036 -14 574 -1 1047 -1 1051 0 4 1
17 -3 27 -9 11 -6 20 -7 20 -2 0 5 130 10 288 11 159 1 359 4 445 6 97 2 155
0 151 -6 -3 -5 -10 -7 -15 -4 -15 10 -10 -2 8 -16 11 -10 14 -10 9 -1 -4 6 -2
13 3 13 21 3 26 4 39 13 7 4 16 5 19 2 4 -3 1 -6 -5 -6 -7 0 -12 -4 -12 -8 0
-4 28 -7 63 -7 59 2 87 -7 87 -27 0 -10 -38 -7 -57 5 -6 4 -14 3 -17 -2 -4 -6
-194 -10 -489 -10 -429 1 -484 2 -500 17 -16 15 -17 15 -11 -1 3 -10 1 -17 -6
-17 -6 0 -9 4 -5 9 3 6 -3 15 -14 20 -30 17 -36 13 -16 -9 18 -20 17 -20 -186
-20 -112 0 -648 -3 -1191 -7 -946 -6 -989 -6 -1008 12 -11 10 -20 14 -20 10 0
-4 -10 0 -22 11 l-23 19 19 -22 c10 -13 22 -20 27 -18 4 3 10 2 13 -3 3 -5
-11 -9 -30 -9 -27 0 -34 4 -29 16 3 11 0 10 -10 -3 -11 -15 -15 -16 -15 -5 0
8 3 19 8 25 4 5 -3 -2 -16 -16 l-23 -25 10 27 c7 19 7 28 -2 31 -7 2 10 3 37
2 27 -1 53 4 60 10 14 16 56 16 56 1z m-355 -6 c3 -5 1 -10 -6 -10 -7 0 -10
-3 -6 -6 10 -10 -30 -46 -46 -42 -14 3 -14 7 -2 36 14 32 46 44 60 22z m-288
-6 c-3 -3 -12 -4 -19 -1 -8 3 -5 6 6 6 11 1 17 -2 13 -5z m418 -11 c-4 -10 -8
-23 -8 -29 0 -12 -97 -19 -97 -7 0 5 7 19 16 31 11 17 25 22 56 22 34 0 39 -3
33 -17z m-1055 -3 c-8 -5 -24 -9 -35 -9 l-20 0 20 9 c11 5 27 9 35 9 13 1 13
0 0 -9z m64 -5 c-6 -16 -24 -21 -24 -7 0 11 11 22 21 22 5 0 6 -7 3 -15z m523
-10 c-11 -22 -17 -25 -67 -23 l-55 1 55 7 55 7 -47 1 c-45 2 -57 9 -41 25 3 4
30 7 59 7 52 0 52 0 41 -25z m4268 5 c18 -19 17 -20 -1 -20 -11 0 -26 6 -33
13 -11 10 -13 10 -7 0 13 -23 -57 -16 -72 7 -12 19 -10 20 41 20 41 0 58 -5
72 -20z m50 0 c18 -19 17 -20 -2 -20 -11 0 -28 9 -38 20 -18 19 -17 20 2 20
11 0 28 -9 38 -20z m251 12 c-3 -5 5 -8 17 -7 12 1 28 0 35 -3 11 -4 11 -6 0
-13 -22 -14 -242 -11 -257 4 -11 10 -13 10 -7 0 11 -20 -9 -15 -29 7 -18 20
-17 20 114 20 73 0 130 -4 127 -8z m-4480 -39 c-11 -11 -17 4 -9 23 7 18 8 18
11 1 2 -10 1 -21 -2 -24z m-819 5 c-3 -8 -6 -5 -6 6 -1 11 2 17 5 13 3 -3 4
-12 1 -19z m76 7 c-3 -9 -8 -14 -10 -11 -3 3 -2 9 2 15 9 16 15 13 8 -4z
m5312 5 c3 -5 1 -10 -4 -10 -6 0 -11 5 -11 10 0 6 2 10 4 10 3 0 8 -4 11 -10z
m-4629 -16 c-23 -23 -19 -40 4 -19 11 10 23 16 26 13 3 -4 -14 -20 -38 -37
-68 -48 -90 -70 -83 -81 4 -6 -1 -7 -11 -3 -13 5 -15 3 -9 -7 5 -8 3 -11 -4
-9 -21 7 -15 19 44 80 32 32 53 59 49 59 -11 0 18 20 29 20 5 0 1 -7 -7 -16z
m-675 -31 c13 -16 12 -17 -3 -4 -10 7 -18 15 -18 17 0 8 8 3 21 -13z m567 10
c-10 -2 -26 -2 -35 0 -10 3 -2 5 17 5 19 0 27 -2 18 -5z m-290 -30 c-10 -2
-28 -2 -40 0 -13 2 -5 4 17 4 22 1 32 -1 23 -4z m169 1 c-3 -3 -12 -4 -19 -1
-8 3 -5 6 6 6 11 1 17 -2 13 -5z m4241 -1 c-10 -2 -26 -2 -35 0 -10 3 -2 5 17
5 19 0 27 -2 18 -5z m49 1 c-3 -3 -12 -4 -19 -1 -8 3 -5 6 6 6 11 1 17 -2 13
-5z m40 0 c-3 -3 -12 -4 -19 -1 -8 3 -5 6 6 6 11 1 17 -2 13 -5z m-4754 -16
c-21 -10 -40 -43 -35 -61 1 -5 -2 -6 -8 -2 -12 7 13 61 32 68 24 10 33 6 11
-5z m3755 5 c-16 -2 -40 -2 -55 0 -16 2 -3 4 27 4 30 0 43 -2 28 -4z m-2993
-13 c3 -5 1 -10 -4 -10 -6 0 -11 5 -11 10 0 6 2 10 4 10 3 0 8 -4 11 -10z
m2508 3 c-13 -2 -35 -2 -50 0 -16 2 -5 4 22 4 28 0 40 -2 28 -4z m-2626 -9
c-3 -3 -12 -4 -19 -1 -8 3 -5 6 6 6 11 1 17 -2 13 -5z m1976 -1 c-7 -2 -19 -2
-25 0 -7 3 -2 5 12 5 14 0 19 -2 13 -5z m-2226 -9 c-3 -3 -12 -4 -19 -1 -8 3
-5 6 6 6 11 1 17 -2 13 -5z m136 -1 c-7 -2 -21 -2 -30 0 -10 3 -4 5 12 5 17 0
24 -2 18 -5z m1484 1 c-3 -3 -12 -4 -19 -1 -8 3 -5 6 6 6 11 1 17 -2 13 -5z
m-664 -11 c-7 -2 -19 -2 -25 0 -7 3 -2 5 12 5 14 0 19 -2 13 -5z m-271 -10
c-6 -2 -9 -9 -6 -14 3 -6 11 -5 20 2 9 7 14 8 14 1 0 -18 -20 -24 -35 -12 -20
17 -19 30 3 29 10 0 12 -3 4 -6z m-485 -25 c-3 -8 -6 -5 -6 6 -1 11 2 17 5 13
3 -3 4 -12 1 -19z m73 18 c0 -2 -8 -10 -17 -17 -16 -13 -17 -12 -4 4 13 16 21
21 21 13z m180 -16 c0 -5 -4 -10 -10 -10 -5 0 -10 5 -10 10 0 6 5 10 10 10 6
0 10 -4 10 -10z m-439 -61 c-12 -19 -21 -30 -21 -26 0 12 33 67 38 63 1 -2 -6
-19 -17 -37z m425 15 c-4 -9 -9 -15 -11 -12 -3 3 -3 13 1 22 4 9 9 15 11 12 3
-3 3 -13 -1 -22z m-736 3 c-30 -10 -36 -17 -41 -52 -3 -22 -11 -51 -17 -65
l-11 -25 0 28 c-1 16 3 37 9 47 5 10 11 31 12 46 2 26 6 29 42 31 l41 2 -35
-12z m995 3 c3 -5 1 -10 -4 -10 -6 0 -11 5 -11 10 0 6 2 10 4 10 3 0 8 -4 11
-10z m-13 -27 c-6 -2 -10 -9 -7 -13 3 -5 1 -11 -5 -15 -5 -3 -10 0 -10 8 0 17
10 27 24 26 6 0 5 -3 -2 -6z m-194 -38 c-3 -3 -9 2 -12 12 -6 14 -5 15 5 6 7
-7 10 -15 7 -18z m132 5 c-8 -6 -33 -10 -55 -11 l-40 -1 29 -12 29 -13 -27 -5
c-15 -3 -25 -3 -22 -1 8 8 -18 31 -28 25 -5 -3 -6 0 -2 6 4 7 22 12 39 13 18
1 43 4 57 8 30 9 40 4 20 -9z m-502 -45 c-3 -3 -9 2 -12 12 -6 14 -5 15 5 6 7
-7 10 -15 7 -18z m42 -4 c0 -5 -7 -11 -14 -14 -10 -4 -13 -1 -9 9 6 15 23 19
23 5z m193 -8 c-7 -2 -13 -9 -13 -14 0 -6 5 -7 12 -3 7 4 8 3 4 -4 -4 -6 -14
-8 -23 -5 -13 5 -15 2 -10 -11 4 -10 3 -15 -4 -11 -5 4 -16 1 -24 -5 -8 -7
-15 -11 -16 -9 -6 31 -6 40 3 46 7 3 8 1 4 -5 -11 -18 3 -14 31 8 14 11 31 20
37 19 7 0 6 -3 -1 -6z m-87 -65 c4 -7 3 -8 -4 -4 -7 4 -12 2 -12 -5 0 -7 -3
-10 -6 -6 -6 5 3 27 11 27 2 0 7 -5 11 -12z m-52 -27 c-10 -10 -23 -16 -28
-13 -5 3 2 11 15 18 33 18 36 17 13 -5z m-34 -26 c0 -2 -7 -1 -17 2 -10 4 -14
2 -10 -4 5 -7 -1 -9 -15 -5 -19 5 -20 7 -5 10 9 2 14 8 11 14 -4 6 2 5 15 -1
11 -7 21 -14 21 -16z m-73 -28 c-12 -5 -48 -7 -80 -5 -46 2 -57 0 -57 -12 0
-9 5 -21 12 -28 7 -7 9 -12 5 -12 -10 0 -39 48 -34 57 3 4 44 8 90 8 56 0 78
-3 64 -8z m350 -164 c-3 -10 -5 -2 -5 17 0 19 2 27 5 18 2 -10 2 -26 0 -35z"/>
<path d="M839 999 l-24 -20 30 17 c39 24 40 24 28 24 -6 0 -21 -9 -34 -21z"/>
<path d="M459 757 c5 -5 24 -7 42 -5 33 3 33 4 -8 8 -23 3 -39 2 -34 -3z"/>
<path d="M393 743 c9 -2 23 -2 30 0 6 3 -1 5 -18 5 -16 0 -22 -2 -12 -5z"/>
<path d="M3926 748 c3 -5 9 -7 12 -4 3 3 12 0 21 -6 13 -10 14 -10 4 2 -15 16
-46 23 -37 8z"/>
<path d="M3985 750 c-3 -5 -5 -10 -3 -11 33 -8 38 -7 27 7 -14 17 -16 17 -24
4z"/>
<path d="M4020 756 c0 -2 8 -10 18 -17 15 -13 16 -12 3 4 -13 16 -21 21 -21
13z"/>
<path d="M4835 739 c5 -7 52 -6 59 2 3 2 -10 5 -29 5 -18 0 -32 -3 -30 -7z"/>
</g>
</svg>
